<mxfile host="app.diagrams.net" agent="Mozilla/5.0 (Windows NT 10.0; Win64; x64) AppleWebKit/537.36 (KHTML, like Gecko) Chrome/135.0.0.0 Safari/537.36" version="26.2.13">
  <diagram id="R2lEEEUBdFMjLlhIrx00" name="Page-1">
    <mxGraphModel dx="749" dy="855" grid="1" gridSize="10" guides="1" tooltips="1" connect="1" arrows="1" fold="1" page="1" pageScale="1" pageWidth="850" pageHeight="1100" math="0" shadow="0" extFonts="Permanent Marker^https://fonts.googleapis.com/css?family=Permanent+Marker">
      <root>
        <mxCell id="0" />
        <mxCell id="1" parent="0" />
        <mxCell id="h-gyYyD0fX_xIMZEd8Ms-9" value="&lt;font style=&quot;font-size: 14px;&quot; face=&quot;Verdana&quot;&gt;CUSTOMER&lt;/font&gt;" style="whiteSpace=wrap;html=1;align=center;" vertex="1" parent="1">
          <mxGeometry x="120" y="150" width="100" height="60" as="geometry" />
        </mxCell>
        <mxCell id="h-gyYyD0fX_xIMZEd8Ms-14" value="&lt;font style=&quot;font-size: 14px;&quot; face=&quot;Verdana&quot;&gt;ORDER&lt;/font&gt;" style="whiteSpace=wrap;html=1;align=center;" vertex="1" parent="1">
          <mxGeometry x="540" y="150" width="100" height="60" as="geometry" />
        </mxCell>
        <mxCell id="h-gyYyD0fX_xIMZEd8Ms-15" value="&lt;font style=&quot;font-size: 14px;&quot; face=&quot;Verdana&quot;&gt;ORDER&lt;/font&gt;&lt;div&gt;&lt;font style=&quot;font-size: 14px;&quot; face=&quot;Verdana&quot;&gt;DETAILS&lt;/font&gt;&lt;/div&gt;" style="whiteSpace=wrap;html=1;align=center;" vertex="1" parent="1">
          <mxGeometry x="540" y="450" width="100" height="60" as="geometry" />
        </mxCell>
        <mxCell id="h-gyYyD0fX_xIMZEd8Ms-16" value="&lt;font style=&quot;font-size: 14px;&quot; face=&quot;Verdana&quot;&gt;RATING&lt;/font&gt;" style="whiteSpace=wrap;html=1;align=center;" vertex="1" parent="1">
          <mxGeometry x="120" y="270" width="100" height="60" as="geometry" />
        </mxCell>
        <mxCell id="h-gyYyD0fX_xIMZEd8Ms-17" value="&lt;font style=&quot;font-size: 14px;&quot; face=&quot;Verdana&quot;&gt;MEAL&lt;/font&gt;" style="whiteSpace=wrap;html=1;align=center;" vertex="1" parent="1">
          <mxGeometry x="540" y="800" width="100" height="60" as="geometry" />
        </mxCell>
        <mxCell id="h-gyYyD0fX_xIMZEd8Ms-18" value="&lt;font style=&quot;font-size: 14px;&quot; face=&quot;Verdana&quot;&gt;places&lt;/font&gt;" style="shape=rhombus;perimeter=rhombusPerimeter;whiteSpace=wrap;html=1;align=center;" vertex="1" parent="1">
          <mxGeometry x="330" y="150" width="120" height="60" as="geometry" />
        </mxCell>
        <mxCell id="h-gyYyD0fX_xIMZEd8Ms-19" value="&lt;font style=&quot;font-size: 14px;&quot; face=&quot;Verdana&quot;&gt;has&lt;/font&gt;" style="shape=rhombus;perimeter=rhombusPerimeter;whiteSpace=wrap;html=1;align=center;" vertex="1" parent="1">
          <mxGeometry x="340" y="270" width="120" height="60" as="geometry" />
        </mxCell>
        <mxCell id="h-gyYyD0fX_xIMZEd8Ms-20" value="&lt;font style=&quot;font-size: 14px;&quot; face=&quot;Verdana&quot;&gt;has&lt;/font&gt;" style="shape=rhombus;perimeter=rhombusPerimeter;whiteSpace=wrap;html=1;align=center;" vertex="1" parent="1">
          <mxGeometry x="530" y="300" width="120" height="60" as="geometry" />
        </mxCell>
        <mxCell id="h-gyYyD0fX_xIMZEd8Ms-21" value="&lt;font style=&quot;font-size: 14px;&quot; face=&quot;Verdana&quot;&gt;appears in&lt;/font&gt;" style="shape=rhombus;perimeter=rhombusPerimeter;whiteSpace=wrap;html=1;align=center;" vertex="1" parent="1">
          <mxGeometry x="530" y="620" width="120" height="60" as="geometry" />
        </mxCell>
        <mxCell id="h-gyYyD0fX_xIMZEd8Ms-23" value="" style="endArrow=classic;html=1;rounded=0;entryX=0;entryY=0.5;entryDx=0;entryDy=0;" edge="1" parent="1" target="h-gyYyD0fX_xIMZEd8Ms-18">
          <mxGeometry width="50" height="50" relative="1" as="geometry">
            <mxPoint x="220" y="179.37" as="sourcePoint" />
            <mxPoint x="260" y="179.37" as="targetPoint" />
          </mxGeometry>
        </mxCell>
        <mxCell id="h-gyYyD0fX_xIMZEd8Ms-25" value="" style="endArrow=none;html=1;rounded=0;entryX=0;entryY=0.5;entryDx=0;entryDy=0;exitX=1;exitY=0.5;exitDx=0;exitDy=0;" edge="1" parent="1" source="h-gyYyD0fX_xIMZEd8Ms-18" target="h-gyYyD0fX_xIMZEd8Ms-14">
          <mxGeometry width="50" height="50" relative="1" as="geometry">
            <mxPoint x="460" y="180" as="sourcePoint" />
            <mxPoint x="530" y="150" as="targetPoint" />
          </mxGeometry>
        </mxCell>
        <mxCell id="h-gyYyD0fX_xIMZEd8Ms-29" value="" style="endArrow=classic;html=1;rounded=0;exitX=0;exitY=1;exitDx=0;exitDy=0;" edge="1" parent="1" source="h-gyYyD0fX_xIMZEd8Ms-14">
          <mxGeometry width="50" height="50" relative="1" as="geometry">
            <mxPoint x="390" y="280" as="sourcePoint" />
            <mxPoint x="460" y="300" as="targetPoint" />
          </mxGeometry>
        </mxCell>
        <mxCell id="h-gyYyD0fX_xIMZEd8Ms-30" value="" style="endArrow=classic;html=1;rounded=0;entryX=0.5;entryY=1;entryDx=0;entryDy=0;" edge="1" parent="1" target="h-gyYyD0fX_xIMZEd8Ms-21">
          <mxGeometry width="50" height="50" relative="1" as="geometry">
            <mxPoint x="590" y="800" as="sourcePoint" />
            <mxPoint x="630" y="780.63" as="targetPoint" />
          </mxGeometry>
        </mxCell>
        <mxCell id="h-gyYyD0fX_xIMZEd8Ms-31" value="" style="endArrow=classic;html=1;rounded=0;" edge="1" parent="1">
          <mxGeometry width="50" height="50" relative="1" as="geometry">
            <mxPoint x="589.17" y="210" as="sourcePoint" />
            <mxPoint x="589.17" y="300" as="targetPoint" />
          </mxGeometry>
        </mxCell>
        <mxCell id="h-gyYyD0fX_xIMZEd8Ms-32" value="" style="endArrow=none;html=1;rounded=0;entryX=1;entryY=0.5;entryDx=0;entryDy=0;exitX=0;exitY=0.5;exitDx=0;exitDy=0;" edge="1" parent="1" source="h-gyYyD0fX_xIMZEd8Ms-19" target="h-gyYyD0fX_xIMZEd8Ms-16">
          <mxGeometry width="50" height="50" relative="1" as="geometry">
            <mxPoint x="270" y="380" as="sourcePoint" />
            <mxPoint x="270" y="280" as="targetPoint" />
          </mxGeometry>
        </mxCell>
        <mxCell id="h-gyYyD0fX_xIMZEd8Ms-33" value="" style="endArrow=none;html=1;rounded=0;entryX=0.5;entryY=1;entryDx=0;entryDy=0;" edge="1" parent="1" target="h-gyYyD0fX_xIMZEd8Ms-15">
          <mxGeometry width="50" height="50" relative="1" as="geometry">
            <mxPoint x="590" y="620" as="sourcePoint" />
            <mxPoint x="620" y="590" as="targetPoint" />
          </mxGeometry>
        </mxCell>
        <mxCell id="h-gyYyD0fX_xIMZEd8Ms-34" value="" style="endArrow=none;html=1;rounded=0;" edge="1" parent="1" source="h-gyYyD0fX_xIMZEd8Ms-20">
          <mxGeometry width="50" height="50" relative="1" as="geometry">
            <mxPoint x="530" y="450" as="sourcePoint" />
            <mxPoint x="590" y="450" as="targetPoint" />
          </mxGeometry>
        </mxCell>
        <mxCell id="h-gyYyD0fX_xIMZEd8Ms-36" value="&lt;font style=&quot;font-size: 18px;&quot; face=&quot;Verdana&quot;&gt;1..1&lt;/font&gt;" style="text;html=1;align=center;verticalAlign=middle;whiteSpace=wrap;rounded=0;" vertex="1" parent="1">
          <mxGeometry x="230" y="140" width="80" height="50" as="geometry" />
        </mxCell>
        <mxCell id="h-gyYyD0fX_xIMZEd8Ms-38" value="&lt;font style=&quot;font-size: 18px;&quot; face=&quot;Verdana&quot;&gt;1..1&lt;/font&gt;" style="text;html=1;align=center;verticalAlign=middle;whiteSpace=wrap;rounded=0;" vertex="1" parent="1">
          <mxGeometry x="440" y="220" width="80" height="50" as="geometry" />
        </mxCell>
        <mxCell id="h-gyYyD0fX_xIMZEd8Ms-39" value="&lt;font style=&quot;font-size: 18px;&quot; face=&quot;Verdana&quot;&gt;1..1&lt;/font&gt;" style="text;html=1;align=center;verticalAlign=middle;whiteSpace=wrap;rounded=0;" vertex="1" parent="1">
          <mxGeometry x="580" y="230" width="80" height="50" as="geometry" />
        </mxCell>
        <mxCell id="h-gyYyD0fX_xIMZEd8Ms-40" value="&lt;font style=&quot;font-size: 18px;&quot; face=&quot;Verdana&quot;&gt;1..1&lt;/font&gt;" style="text;html=1;align=center;verticalAlign=middle;whiteSpace=wrap;rounded=0;" vertex="1" parent="1">
          <mxGeometry x="580" y="720" width="80" height="50" as="geometry" />
        </mxCell>
        <mxCell id="h-gyYyD0fX_xIMZEd8Ms-41" value="&lt;font style=&quot;font-size: 18px;&quot; face=&quot;Verdana&quot;&gt;0&lt;/font&gt;&lt;span style=&quot;font-size: 18px; font-family: Verdana; background-color: transparent; color: light-dark(rgb(0, 0, 0), rgb(255, 255, 255));&quot;&gt;..1&lt;/span&gt;" style="text;html=1;align=center;verticalAlign=middle;whiteSpace=wrap;rounded=0;" vertex="1" parent="1">
          <mxGeometry x="240" y="260" width="80" height="50" as="geometry" />
        </mxCell>
        <mxCell id="h-gyYyD0fX_xIMZEd8Ms-42" value="&lt;font style=&quot;font-size: 18px;&quot; face=&quot;Verdana&quot;&gt;0&lt;/font&gt;&lt;span style=&quot;font-size: 18px; font-family: Verdana; background-color: transparent; color: light-dark(rgb(0, 0, 0), rgb(255, 255, 255));&quot;&gt;..*&lt;/span&gt;" style="text;html=1;align=center;verticalAlign=middle;whiteSpace=wrap;rounded=0;" vertex="1" parent="1">
          <mxGeometry x="580" y="550" width="80" height="50" as="geometry" />
        </mxCell>
        <mxCell id="h-gyYyD0fX_xIMZEd8Ms-43" value="&lt;span style=&quot;font-size: 18px; font-family: Verdana; background-color: transparent; color: light-dark(rgb(0, 0, 0), rgb(255, 255, 255));&quot;&gt;1..*&lt;/span&gt;" style="text;html=1;align=center;verticalAlign=middle;whiteSpace=wrap;rounded=0;" vertex="1" parent="1">
          <mxGeometry x="580" y="390" width="80" height="50" as="geometry" />
        </mxCell>
        <mxCell id="h-gyYyD0fX_xIMZEd8Ms-44" value="&lt;font style=&quot;font-size: 18px;&quot; face=&quot;Verdana&quot;&gt;0&lt;/font&gt;&lt;span style=&quot;font-size: 18px; font-family: Verdana; background-color: transparent; color: light-dark(rgb(0, 0, 0), rgb(255, 255, 255));&quot;&gt;..*&lt;/span&gt;" style="text;html=1;align=center;verticalAlign=middle;whiteSpace=wrap;rounded=0;" vertex="1" parent="1">
          <mxGeometry x="460" y="140" width="80" height="50" as="geometry" />
        </mxCell>
      </root>
    </mxGraphModel>
  </diagram>
</mxfile>
